<svg width="286" height="140" viewBox="0 0 286 140" fill="none" xmlns="http://www.w3.org/2000/svg"><mask id="a" style="mask-type:alpha" maskUnits="userSpaceOnUse" x="-141" y="-13" width="444" height="403"><path transform="matrix(-1 0 0 1 302.094 -13)" fill="#D9D9D9" d="M0 0h443.093v403H0z"/></mask><g mask="url(#a)" stroke-width=".395" stroke-linecap="round"><path d="M-164.769 91.908c5.999-27.928 14.418-51.943 33.445-73.584C-119.923 5.356-108.319-4.89-90.499-7.068-69.653-9.615-50.417-.016-30.806 5.636c20.451 5.893 43.739 12.992 65.176 9.518 24.106-3.906 50.69-8.29 75.092-6.481 12.945.959 30.48 2.783 37.043 15.796 10.479 20.779 15.95 44.129 32.921 61.03 19.652 19.57 47.446 20.263 71.825 30.818 24.542 10.626 47.823 31.641 42.106 60.836-5.624 28.727-24.197 57.864-45.182 77.946-21.924 20.981-50.12 34.614-77.327 47.419-12.567 5.915-26.181 13.842-39.935 16.638-21.288 4.328-45.093 1.08-66.5-1.15-33.226-3.461-65.158-10.079-95.364-24.638-21.093-10.166-41.666-21.227-61.104-34.301-44.276-29.781-105.424-66.037-105.689-126.693-.071-16.297-.209-32.92 9.363-46.925 10.346-15.138 19.764-31.183 30.949-45.689" stroke="url(#paint0_linear_2039_22295)"/><path d="M-167.072 94.488c5.998-27.928 14.418-51.943 33.444-73.584C-122.226 7.936-110.622-2.31-92.803-4.488-71.956-7.035-52.72 2.564-33.109 8.216c20.451 5.893 43.738 12.993 65.176 9.518 24.106-3.906 50.69-8.29 75.092-6.481 12.945.959 30.48 2.783 37.043 15.796 10.479 20.779 15.95 44.129 32.921 61.03 19.652 19.57 47.446 20.263 71.825 30.818 24.542 10.627 47.823 31.641 42.106 60.836-5.624 28.727-24.197 57.864-45.182 77.946-21.925 20.981-50.12 34.615-77.328 47.419-12.567 5.915-26.18 13.842-39.934 16.638-21.289 4.328-45.094 1.08-66.5-1.15-33.227-3.461-65.158-10.079-95.364-24.637-21.093-10.167-41.666-21.228-61.104-34.302-44.276-29.781-105.424-66.037-105.689-126.693-.072-16.297-.21-32.92 9.362-46.925 10.346-15.138 19.765-31.183 30.949-45.689" stroke="url(#paint1_linear_2039_22295)"/><path d="M-169.373 97.068c5.999-27.928 14.419-51.944 33.445-73.584C-124.526 10.515-112.922.269-95.103-1.91c20.847-2.547 40.083 7.053 59.694 12.704 20.45 5.894 43.738 12.993 65.176 9.519 24.106-3.907 50.69-8.29 75.092-6.482 12.945.96 30.48 2.783 37.043 15.797 10.479 20.779 15.949 44.129 32.921 61.03 19.652 19.57 47.446 20.263 71.825 30.818 24.542 10.626 47.822 31.641 42.106 60.836-5.624 28.726-24.197 57.864-45.182 77.946-21.925 20.981-50.12 34.614-77.328 47.419-12.567 5.914-26.18 13.841-39.934 16.638-21.289 4.328-45.094 1.079-66.5-1.15-33.227-3.462-65.158-10.079-95.364-24.638-21.093-10.166-41.666-21.228-61.104-34.302-44.277-29.78-105.424-66.036-105.689-126.692-.072-16.297-.21-32.921 9.362-46.926 10.346-15.137 19.765-31.183 30.949-45.688" stroke="url(#paint2_linear_2039_22295)"/><path d="M-171.667 99.648c5.999-27.928 14.418-51.943 33.445-73.584C-126.82 13.096-115.217 2.849-97.397.67c20.847-2.547 40.083 7.053 59.694 12.704 20.45 5.894 43.738 12.993 65.176 9.52 24.106-3.907 50.69-8.291 75.091-6.483 12.945.96 30.481 2.783 37.044 15.797 10.479 20.779 15.949 44.129 32.92 61.03 19.653 19.57 47.447 20.263 71.825 30.818 24.543 10.626 47.823 31.641 42.107 60.836-5.625 28.726-24.197 57.864-45.182 77.946-21.925 20.981-50.12 34.614-77.328 47.419-12.567 5.914-26.18 13.841-39.934 16.638-21.289 4.328-45.094 1.079-66.5-1.15-33.227-3.462-65.158-10.079-95.364-24.638-21.093-10.166-41.667-21.227-61.105-34.302-44.276-29.78-105.424-66.036-105.689-126.692-.071-16.297-.209-32.921 9.363-46.926 10.346-15.137 19.765-31.183 30.949-45.688" stroke="url(#paint3_linear_2039_22295)"/><path d="M-174.431 102.743c5.999-27.928 14.418-51.943 33.445-73.584 11.402-12.968 23.005-23.215 40.825-25.392 20.847-2.548 40.083 7.052 59.694 12.704 20.45 5.893 43.738 12.992 65.175 9.518 24.107-3.906 50.69-8.29 75.092-6.482 12.945.96 30.481 2.783 37.044 15.797 10.479 20.779 15.949 44.129 32.92 61.03 19.653 19.57 47.447 20.263 71.825 30.818 24.542 10.626 47.823 31.641 42.107 60.836-5.625 28.727-24.197 57.864-45.182 77.946-21.925 20.981-50.12 34.614-77.328 47.419-12.567 5.914-26.18 13.842-39.934 16.638-21.289 4.328-45.094 1.08-66.5-1.15-33.227-3.461-65.159-10.079-95.364-24.638-21.093-10.166-41.667-21.227-61.105-34.301-44.276-29.781-105.424-66.037-105.689-126.693-.071-16.297-.209-32.92 9.363-46.925 10.346-15.138 19.765-31.183 30.949-45.689" stroke="url(#paint4_linear_2039_22295)"/><path d="M-176.734 105.324c5.999-27.928 14.418-51.944 33.445-73.584 11.402-12.969 23.005-23.216 40.825-25.393C-81.617 3.8-62.382 13.4-42.77 19.051-22.32 24.945.968 32.044 22.404 28.57c24.107-3.907 50.69-8.29 75.092-6.482 12.945.96 30.481 2.783 37.044 15.797 10.479 20.778 15.949 44.128 32.92 61.029 19.653 19.571 47.447 20.264 71.825 30.819 24.542 10.626 47.823 31.641 42.107 60.836-5.625 28.726-24.197 57.864-45.182 77.946-21.925 20.981-50.12 34.614-77.328 47.419-12.567 5.914-26.18 13.841-39.934 16.637-21.289 4.329-45.094 1.08-66.5-1.15-33.227-3.461-65.159-10.079-95.364-24.637-21.093-10.166-41.667-21.228-61.105-34.302-44.276-29.78-105.424-66.036-105.689-126.692-.071-16.297-.209-32.921 9.363-46.926 10.346-15.137 19.765-31.183 30.949-45.688" stroke="url(#paint5_linear_2039_22295)"/><path d="M-179.031 107.903c5.998-27.928 14.418-51.943 33.444-73.584 11.402-12.968 23.006-23.215 40.825-25.392 20.847-2.547 40.083 7.052 59.694 12.704 20.451 5.893 43.738 12.993 65.176 9.518 24.106-3.906 50.69-8.29 75.092-6.481 12.945.96 30.48 2.783 37.043 15.797 10.479 20.778 15.95 44.128 32.921 61.029 19.652 19.57 47.446 20.263 71.825 30.819 24.542 10.626 47.823 31.64 42.106 60.835-5.624 28.727-24.197 57.864-45.182 77.946-21.925 20.981-50.12 34.615-77.328 47.419-12.567 5.915-26.18 13.842-39.934 16.638-21.289 4.328-45.094 1.08-66.5-1.15-33.227-3.461-65.158-10.079-95.364-24.637-21.093-10.167-41.666-21.228-61.104-34.302-44.276-29.781-105.424-66.037-105.689-126.693-.072-16.297-.21-32.92 9.362-46.925 10.346-15.138 19.765-31.183 30.949-45.689" stroke="url(#paint6_linear_2039_22295)"/><path d="M-181.36 111.954c5.999-27.928 14.418-51.943 33.445-73.584 11.401-12.968 23.005-23.215 40.825-25.392 20.847-2.548 40.082 7.052 59.693 12.704C-26.946 31.575-3.658 38.674 17.78 35.2c24.107-3.906 50.69-8.29 75.092-6.482 12.945.96 30.48 2.783 37.044 15.797 10.479 20.779 15.949 44.129 32.92 61.029 19.653 19.571 47.447 20.264 71.825 30.819 24.542 10.626 47.823 31.641 42.107 60.836-5.625 28.727-24.198 57.864-45.183 77.946-21.924 20.981-50.12 34.614-77.327 47.419-12.567 5.914-26.181 13.841-39.935 16.638-21.288 4.328-45.093 1.08-66.499-1.15-33.227-3.461-65.159-10.079-95.364-24.638-21.094-10.166-41.667-21.227-61.105-34.301-44.276-29.781-105.424-66.037-105.689-126.693-.071-16.297-.209-32.92 9.363-46.926 10.346-15.137 19.765-31.182 30.949-45.688" stroke="url(#paint7_linear_2039_22295)"/></g><defs><linearGradient id="paint0_linear_2039_22295" x1="-172.387" y1="197.787" x2="155.718" y2="434.607" gradientUnits="userSpaceOnUse"><stop stop-color="#6FB2FF"/><stop offset=".661" stop-color="#946FFF"/></linearGradient><linearGradient id="paint1_linear_2039_22295" x1="-174.69" y1="200.367" x2="153.415" y2="437.187" gradientUnits="userSpaceOnUse"><stop stop-color="#6FB2FF"/><stop offset=".661" stop-color="#946FFF"/></linearGradient><linearGradient id="paint2_linear_2039_22295" x1="-176.99" y1="202.947" x2="151.115" y2="439.766" gradientUnits="userSpaceOnUse"><stop stop-color="#6FB2FF"/><stop offset=".661" stop-color="#946FFF"/></linearGradient><linearGradient id="paint3_linear_2039_22295" x1="-179.284" y1="205.527" x2="148.821" y2="442.346" gradientUnits="userSpaceOnUse"><stop stop-color="#6FB2FF"/><stop offset=".661" stop-color="#946FFF"/></linearGradient><linearGradient id="paint4_linear_2039_22295" x1="-182.048" y1="208.622" x2="146.057" y2="445.442" gradientUnits="userSpaceOnUse"><stop stop-color="#6FB2FF"/><stop offset=".661" stop-color="#946FFF"/></linearGradient><linearGradient id="paint5_linear_2039_22295" x1="-184.351" y1="211.203" x2="143.754" y2="448.022" gradientUnits="userSpaceOnUse"><stop stop-color="#6FB2FF"/><stop offset=".661" stop-color="#946FFF"/></linearGradient><linearGradient id="paint6_linear_2039_22295" x1="-186.649" y1="213.782" x2="141.456" y2="450.602" gradientUnits="userSpaceOnUse"><stop stop-color="#6FB2FF"/><stop offset=".661" stop-color="#946FFF"/></linearGradient><linearGradient id="paint7_linear_2039_22295" x1="-188.977" y1="217.833" x2="139.127" y2="454.652" gradientUnits="userSpaceOnUse"><stop stop-color="#6FB2FF"/><stop offset=".661" stop-color="#946FFF"/></linearGradient></defs></svg>