<svg width="356" height="140" viewBox="0 0 356 140" fill="none" xmlns="http://www.w3.org/2000/svg"><mask id="a" style="mask-type:alpha" maskUnits="userSpaceOnUse" x="-12" y="0" width="405" height="368"><path fill="#D9D9D9" d="M-12 0h404.144v367.575H-12z"/></mask><g mask="url(#a)" stroke-width=".395" stroke-linecap="round"><path d="M413.826 95.687c-5.472-25.473-13.151-47.377-30.505-67.116-10.4-11.828-20.983-21.174-37.236-23.16-19.015-2.323-36.56 6.433-54.447 11.587-18.653 5.375-39.894 11.85-59.447 8.682-21.987-3.563-46.234-7.561-68.491-5.912-11.807.875-27.801 2.538-33.787 14.408-9.558 18.952-14.547 40.25-30.027 55.665-17.925 17.85-43.276 18.482-65.511 28.11-22.385 9.692-43.62 28.859-38.405 55.488 5.13 26.201 22.07 52.777 41.21 71.094 19.998 19.137 45.714 31.572 70.531 43.251 11.462 5.394 23.879 12.625 36.424 15.175 19.417 3.948 41.129.985 60.653-1.049 30.307-3.157 59.432-9.193 86.982-22.471 19.239-9.273 38.004-19.362 55.733-31.287 40.385-27.163 96.158-60.232 96.399-115.556.065-14.864.191-30.027-8.54-42.8-9.436-13.807-18.027-28.443-28.228-41.673" stroke="url(#paint0_linear_2039_22308)"/><path d="M415.926 98.04c-5.471-25.473-13.15-47.377-30.505-67.116-10.399-11.828-20.983-21.174-37.236-23.16-19.014-2.323-36.559 6.433-54.446 11.587-18.654 5.376-39.894 11.85-59.447 8.682-21.987-3.563-46.234-7.561-68.491-5.912-11.807.875-27.801 2.538-33.787 14.408-9.558 18.952-14.548 40.25-30.027 55.665-17.925 17.85-43.276 18.482-65.512 28.11-22.384 9.692-43.619 28.859-38.405 55.488 5.13 26.201 22.07 52.777 41.21 71.094 19.998 19.137 45.715 31.572 70.531 43.251 11.462 5.394 23.879 12.625 36.424 15.175 19.417 3.948 41.13.985 60.654-1.049 30.307-3.157 59.431-9.193 86.982-22.471 19.239-9.273 38.004-19.362 55.733-31.287 40.384-27.163 96.157-60.232 96.399-115.556.065-14.864.191-30.027-8.54-42.8-9.437-13.807-18.027-28.443-28.229-41.673" stroke="url(#paint1_linear_2039_22308)"/><path d="M418.024 100.393c-5.471-25.473-13.15-47.377-30.505-67.116-10.399-11.828-20.983-21.174-37.236-23.16-19.014-2.323-36.559 6.433-54.446 11.587-18.654 5.376-39.894 11.85-59.447 8.682-21.987-3.563-46.234-7.561-68.491-5.912-11.807.875-27.801 2.538-33.787 14.408-9.558 18.952-14.548 40.25-30.027 55.665-17.925 17.85-43.276 18.482-65.512 28.11C16.19 132.349-5.046 151.516.168 178.145c5.13 26.201 22.07 52.777 41.21 71.094 19.998 19.137 45.715 31.572 70.531 43.251 11.462 5.394 23.879 12.625 36.424 15.175 19.417 3.948 41.13.985 60.654-1.049 30.306-3.157 59.431-9.193 86.982-22.471 19.239-9.273 38.004-19.362 55.733-31.287 40.384-27.163 96.157-60.232 96.399-115.556.065-14.864.191-30.027-8.54-42.8-9.437-13.807-18.028-28.442-28.229-41.673" stroke="url(#paint2_linear_2039_22308)"/><path d="M420.117 102.746c-5.472-25.473-13.151-47.377-30.505-67.116-10.4-11.828-20.983-21.174-37.236-23.16-19.015-2.323-36.56 6.433-54.447 11.587-18.653 5.376-39.894 11.85-59.447 8.682-21.987-3.563-46.234-7.561-68.491-5.912-11.807.875-27.801 2.538-33.787 14.408-9.558 18.952-14.547 40.25-30.027 55.665-17.925 17.85-43.276 18.482-65.511 28.11-22.385 9.692-43.62 28.859-38.405 55.488 5.13 26.201 22.07 52.777 41.21 71.094 19.998 19.137 45.715 31.572 70.531 43.251 11.462 5.394 23.879 12.625 36.424 15.175 19.417 3.948 41.129.985 60.654-1.049 30.306-3.157 59.431-9.193 86.981-22.471 19.239-9.273 38.004-19.362 55.733-31.287 40.385-27.163 96.158-60.232 96.399-115.556.065-14.864.191-30.027-8.54-42.8-9.436-13.807-18.027-28.443-28.228-41.673" stroke="url(#paint3_linear_2039_22308)"/><path d="M422.638 105.57c-5.471-25.474-13.15-47.378-30.505-67.117-10.399-11.828-20.983-21.174-37.236-23.16-19.014-2.323-36.559 6.433-54.446 11.588-18.654 5.375-39.894 11.85-59.447 8.681-21.987-3.563-46.234-7.561-68.491-5.912-11.807.876-27.801 2.539-33.787 14.409-9.558 18.952-14.548 40.25-30.027 55.664-17.925 17.851-43.276 18.483-65.512 28.11-22.384 9.692-43.619 28.859-38.405 55.488 5.13 26.202 22.07 52.778 41.21 71.094 19.998 19.137 45.715 31.572 70.531 43.251 11.462 5.395 23.879 12.625 36.424 15.176 19.417 3.947 41.13.984 60.654-1.049 30.306-3.157 59.431-9.193 86.982-22.472 19.239-9.273 38.004-19.362 55.733-31.287 40.384-27.163 96.157-60.231 96.399-115.556.065-14.864.191-30.026-8.54-42.8-9.437-13.807-18.028-28.442-28.229-41.672" stroke="url(#paint4_linear_2039_22308)"/><path d="M424.739 107.924c-5.472-25.474-13.151-47.378-30.505-67.117-10.399-11.828-20.983-21.174-37.236-23.16-19.015-2.323-36.56 6.433-54.447 11.588-18.653 5.375-39.893 11.85-59.447 8.681-21.987-3.563-46.233-7.561-68.491-5.912-11.807.876-27.801 2.539-33.787 14.409-9.558 18.952-14.547 40.25-30.027 55.664-17.925 17.851-43.276 18.483-65.511 28.11-22.385 9.692-43.62 28.859-38.405 55.488 5.13 26.202 22.07 52.778 41.21 71.094 19.998 19.137 45.715 31.572 70.531 43.251 11.462 5.395 23.879 12.625 36.424 15.176 19.417 3.947 41.129.984 60.654-1.049 30.306-3.157 59.431-9.193 86.981-22.472 19.239-9.273 38.004-19.362 55.733-31.287 40.385-27.163 96.158-60.231 96.399-115.556.065-14.864.191-30.026-8.54-42.8-9.436-13.807-18.027-28.442-28.228-41.672" stroke="url(#paint5_linear_2039_22308)"/><path d="M426.834 110.276c-5.471-25.473-13.151-47.377-30.505-67.116C385.93 31.332 375.346 21.986 359.093 20c-19.015-2.323-36.559 6.432-54.447 11.587-18.653 5.375-39.893 11.85-59.446 8.682-21.988-3.563-46.234-7.562-68.491-5.912-11.808.875-27.801 2.538-33.788 14.408-9.558 18.952-14.547 40.25-30.026 55.665-17.925 17.85-43.276 18.482-65.512 28.11-22.385 9.692-43.619 28.859-38.405 55.488 5.13 26.201 22.07 52.777 41.21 71.094 19.998 19.137 45.715 31.572 70.531 43.251 11.462 5.394 23.879 12.625 36.424 15.175 19.417 3.948 41.13.985 60.654-1.049 30.306-3.157 59.431-9.193 86.981-22.472 19.239-9.272 38.004-19.361 55.734-31.286 40.384-27.163 96.157-60.232 96.399-115.556.064-14.865.19-30.027-8.54-42.801-9.437-13.806-18.028-28.442-28.229-41.672" stroke="url(#paint6_linear_2039_22308)"/><path d="M428.958 113.971c-5.471-25.473-13.15-47.378-30.505-67.116-10.399-11.828-20.983-21.175-37.236-23.16-19.014-2.324-36.559 6.432-54.446 11.587-18.654 5.375-39.894 11.85-59.447 8.682-21.987-3.563-46.234-7.562-68.491-5.912-11.807.875-27.801 2.538-33.787 14.408-9.558 18.952-14.548 40.25-30.027 55.664-17.925 17.851-43.276 18.483-65.512 28.11-22.384 9.692-43.619 28.86-38.405 55.489 5.13 26.201 22.07 52.777 41.21 71.094 19.998 19.137 45.715 31.571 70.531 43.251 11.462 5.394 23.879 12.624 36.424 15.175 19.417 3.948 41.13.985 60.654-1.049 30.307-3.157 59.431-9.193 86.982-22.472 19.239-9.273 38.004-19.361 55.733-31.286 40.384-27.163 96.157-60.232 96.399-115.556.065-14.865.191-30.027-8.54-42.801-9.437-13.807-18.027-28.442-28.229-41.672" stroke="url(#paint7_linear_2039_22308)"/></g><defs><linearGradient id="paint0_linear_2039_22308" x1="420.774" y1="192.259" x2="121.51" y2="408.261" gradientUnits="userSpaceOnUse"><stop stop-color="#6FB2FF"/><stop offset=".661" stop-color="#946FFF"/></linearGradient><linearGradient id="paint1_linear_2039_22308" x1="422.874" y1="194.612" x2="123.611" y2="410.615" gradientUnits="userSpaceOnUse"><stop stop-color="#6FB2FF"/><stop offset=".661" stop-color="#946FFF"/></linearGradient><linearGradient id="paint2_linear_2039_22308" x1="424.972" y1="196.965" x2="125.709" y2="412.968" gradientUnits="userSpaceOnUse"><stop stop-color="#6FB2FF"/><stop offset=".661" stop-color="#946FFF"/></linearGradient><linearGradient id="paint3_linear_2039_22308" x1="427.065" y1="199.318" x2="127.801" y2="415.321" gradientUnits="userSpaceOnUse"><stop stop-color="#6FB2FF"/><stop offset=".661" stop-color="#946FFF"/></linearGradient><linearGradient id="paint4_linear_2039_22308" x1="429.586" y1="202.141" x2="130.323" y2="418.144" gradientUnits="userSpaceOnUse"><stop stop-color="#6FB2FF"/><stop offset=".661" stop-color="#946FFF"/></linearGradient><linearGradient id="paint5_linear_2039_22308" x1="431.687" y1="204.495" x2="132.423" y2="420.498" gradientUnits="userSpaceOnUse"><stop stop-color="#6FB2FF"/><stop offset=".661" stop-color="#946FFF"/></linearGradient><linearGradient id="paint6_linear_2039_22308" x1="433.782" y1="206.848" x2="134.518" y2="422.85" gradientUnits="userSpaceOnUse"><stop stop-color="#6FB2FF"/><stop offset=".661" stop-color="#946FFF"/></linearGradient><linearGradient id="paint7_linear_2039_22308" x1="435.906" y1="210.543" x2="136.643" y2="426.545" gradientUnits="userSpaceOnUse"><stop stop-color="#6FB2FF"/><stop offset=".661" stop-color="#946FFF"/></linearGradient></defs></svg>