<svg width="463" height="544" viewBox="0 0 463 544" fill="none" xmlns="http://www.w3.org/2000/svg"><mask id="a" style="mask-type:alpha" maskUnits="userSpaceOnUse" x="0" y="0" width="463" height="544"><path fill="#D9D9D9" d="M0 0h463v544H0z"/></mask><g mask="url(#a)"><path opacity=".5" d="M202-54L463 95.388v298.776L202 543.553-59 394.164V95.388L202-54z" fill="#fff"/><path opacity=".2" d="M202 245.921L463 95.388v298.776L202 543.553-59 394.164V95.388l261 150.533z" fill="url(#paint0_linear_1993_20805)"/><path opacity=".1" d="M202-54L463 95.388v1.145L202 245.92-59 96.533v-1.145L202-54z" fill="url(#paint1_linear_1993_20805)"/><path opacity=".5" d="M202 95.96L463 245.35v1.144L202 395.882-59 246.493v-1.144L202 95.96z" fill="#fff"/></g><defs><linearGradient id="paint0_linear_1993_20805" x1="50.895" y1="95.388" x2="522.286" y2="139.583" gradientUnits="userSpaceOnUse"><stop stop-color="#6FB2FF"/><stop offset=".805" stop-color="#946FFF"/></linearGradient><linearGradient id="paint1_linear_1993_20805" x1="50.895" y1="-54" x2="517.276" y2="11.337" gradientUnits="userSpaceOnUse"><stop stop-color="#6FB2FF"/><stop offset=".805" stop-color="#946FFF"/></linearGradient></defs></svg>