<svg width="446" height="510" viewBox="0 0 446 510" fill="none" xmlns="http://www.w3.org/2000/svg"><mask id="a" style="mask-type:alpha" maskUnits="userSpaceOnUse" x="0" y="0" width="446" height="510"><path fill="#D9D9D9" d="M0 0h446v510H0z"/></mask><g mask="url(#a)"><path opacity=".5" d="M227 0l261 149.388v298.776L227 597.553-34 448.164V149.388L227 0z" fill="#fff"/><path opacity=".2" d="M227 299.921l261-150.533v298.776L227 597.553-34 448.164V149.388l261 150.533z" fill="url(#paint0_linear_1993_20826)"/><path opacity=".1" d="M227 0l261 149.388v1.145L227 299.921-34 150.533v-1.145L227 0z" fill="url(#paint1_linear_1993_20826)"/><path opacity=".5" d="M227 149.96l261 149.389v1.144L227 449.882-34 300.493v-1.144L227 149.96z" fill="#fff"/></g><defs><linearGradient id="paint0_linear_1993_20826" x1="75.895" y1="149.388" x2="547.286" y2="193.583" gradientUnits="userSpaceOnUse"><stop stop-color="#6FB2FF"/><stop offset=".805" stop-color="#946FFF"/></linearGradient><linearGradient id="paint1_linear_1993_20826" x1="75.895" x2="542.276" y2="65.337" gradientUnits="userSpaceOnUse"><stop stop-color="#6FB2FF"/><stop offset=".805" stop-color="#946FFF"/></linearGradient></defs></svg>