<svg width="100" height="63" viewBox="0 0 100 63" fill="none" xmlns="http://www.w3.org/2000/svg"><path fill-rule="evenodd" clip-rule="evenodd" d="M50 63c27.614 0 50-4.892 50-10.927 0-6.034-22.386-10.926-50-10.926-17.328 0-32.598 1.926-41.57 4.852C3.107 47.736 0 49.825 0 52.073 0 58.108 22.386 63 50 63z" fill="#F5F5F5"/><path d="M85.938 20.48L70.085 2.524C69.325 1.3 68.212.56 67.042.56H32.958c-1.17 0-2.282.74-3.043 1.963L14.063 20.48v14.423h71.874V20.48z" stroke="#CECECE"/><path d="M31.5 20.854c1.927 0 3.48 2.064 3.48 4.57v.034c0 2.506 1.57 4.53 3.496 4.53h23.048c1.926 0 3.497-2.042 3.497-4.549 0-2.516 1.552-4.585 3.478-4.585h17.439v28.311c0 3.312-2.064 6.03-4.61 6.03H18.672c-2.545 0-4.608-2.718-4.608-6.03V20.854H31.5z" fill="#FAFAFA" stroke="#CECECE"/></svg>