<svg width="267" height="80" fill="none" xmlns="http://www.w3.org/2000/svg"><path d="m79.37 47.838-3.584-14.194c-.19-.908-.477-2.103-.477-2.485 0-.813.478-1.004 1.959-1.29 1.195-.24 1.816-.383 2.103-.383.764 0 .956.43 1.195 1.625 1.194 5.305 2.054 9.415 2.867 14.241 0 .144.095.144.191.144s.191 0 .191-.144c.908-4.444 1.864-9.223 2.868-13.19.573-2.485.62-2.485 3.584-2.485 2.963 0 3.01 0 3.536 2.486 1.243 5.16 1.96 8.602 2.915 13.19.048.143.096.143.191.143.096 0 .144 0 .192-.144.764-4.635 1.816-9.51 2.82-14.097.238-1.147.382-1.769 1.194-1.769.43 0 1.099.144 2.103.335 1.672.334 1.911.621 1.911 1.242 0 .335-.191 1.434-.43 2.533l-3.584 14.242c-.669 2.676-.669 2.676-4.206 2.676-3.44 0-3.44 0-3.966-2.676l-2.533-11.47c0-.096-.095-.143-.191-.143s-.143.047-.191.143l-2.629 11.47c-.525 2.676-.525 2.676-3.966 2.676-3.441-.048-3.441-.048-4.062-2.676zm30.156 2.675c-1.482-.143-1.816-.143-1.816-1.242 0-.287.048-.67.048-1.195.095-1.911.143-2.294 1.099-2.294.478 0 1.673.096 3.154.096 2.533 0 5.448-.813 5.448-2.963 0-1.051-.765-2.103-2.342-2.103-.764 0-1.29.144-1.911.144-.478 0-.765-.144-1.338-1.052-.383-.621-.622-1.004-.622-1.338 0-.526.383-.86 1.052-1.577l2.772-3.059v-.047h-4.779c-2.485 0-2.485 0-2.485-2.342s0-2.342 2.437-2.342h7.694c2.342 0 2.246 0 2.867 1.625.287.86.526 1.434.526 1.96 0 .382-.143.716-.717 1.242l-3.106 3.106c2.915.335 4.827 2.581 4.827 5.687 0 5.162-4.971 7.694-10.61 7.694-.43.096-1.338.096-2.198 0zm17.444-1.768c-.67-.477-.908-.955-.908-1.911V25.185c0-2.533 0-2.533 2.58-2.533 2.581 0 2.581 0 2.581 2.533v5.018c1.147-.526 2.867-.908 4.444-.908 4.636 0 7.981 3.25 8.363 7.885.144 1.53.144 4.206 0 5.735-.382 4.636-3.727 7.886-8.936 7.886-3.823.047-6.882-1.195-8.124-2.056zm7.933-2.962c2.532 0 3.823-1.53 4.014-3.728a26.015 26.015 0 0 0 0-3.871c-.191-2.198-1.482-3.728-4.014-3.728-1.291 0-2.82.383-3.632.956v9.463c.812.525 2.341.908 3.632.908zm13.094 2.819c-.574-.43-1.004-.765-1.004-1.147s.239-.717.956-1.816c.765-1.195 1.051-1.434 1.434-1.434.382 0 .669.24 1.194.574 1.434.908 2.629 1.433 4.827 1.433 2.007 0 2.868-.812 2.868-1.863 0-.813-.574-1.434-2.199-1.816l-2.915-.67c-3.011-.716-5.496-2.58-5.496-6.02 0-4.11 3.489-6.548 7.742-6.548 2.581 0 4.731.765 6.356 1.911.621.43.813.765.813 1.052 0 .43-.192.812-.956 1.911-.765 1.147-1.147 1.482-1.529 1.482-.335 0-.622-.239-1.291-.621-.717-.43-2.007-1.052-3.441-1.052-1.911 0-2.724.717-2.724 1.72 0 .813.574 1.339 2.294 1.721l2.581.574c4.014.908 5.83 2.867 5.83 6.117 0 4.157-3.536 6.642-7.933 6.642-3.25.096-5.687-.908-7.407-2.15zm18.877-4.97V27.765c0-2.533 0-2.533 2.581-2.533 2.58 0 2.58 0 2.58 2.533v1.96h4.684c2.389 0 2.389 0 2.389 2.39 0 2.389 0 2.389-2.389 2.389h-4.684v8.602c0 2.007.717 2.867 2.485 2.867.861 0 1.769-.239 2.438-.526.573-.19.955-.334 1.242-.334.574 0 .813.382 1.434 1.864.478 1.195.526 1.433.526 1.672 0 .526-.383.765-1.243 1.147a11.804 11.804 0 0 1-4.683 1.004c-4.349.048-7.36-2.39-7.36-7.168zm15.866 4.302V36.417c0-4.301 2.629-7.073 6.739-7.073 1.385 0 2.867.19 3.966.525 1.052.335 1.721.478 1.721 1.243 0 .382-.096.765-.431 1.96-.382 1.433-.621 1.863-1.242 1.863-.335 0-.717-.095-1.195-.191-.573-.143-1.481-.287-2.15-.287-1.482 0-2.151.717-2.151 2.246v11.279c0 2.533 0 2.533-2.581 2.533-2.676-.048-2.676-.048-2.676-2.581zm13.907-5.066c-.095-1.433-.143-3.87 0-5.209.43-4.827 3.919-8.315 9.271-8.315 5.448 0 8.602 3.488 8.602 8.745v1.052c0 2.341-.477 2.676-2.532 2.676h-10.466v.573c.095 2.246 1.911 3.776 4.54 3.776 1.816 0 2.963-.335 4.014-.813.669-.286 1.147-.525 1.577-.525.478 0 .765.382 1.338 1.72.43 1.004.526 1.386.526 1.673 0 .43-.239.717-1.338 1.194-1.625.717-3.823 1.386-6.165 1.386-5.353.048-8.985-3.25-9.367-7.933zm13.142-4.635c.191-2.82-1.481-4.493-4.11-4.493-2.532 0-4.062 1.769-4.157 4.397v.143h8.267v-.047zm7.12 5.926c0-3.298 2.485-6.309 7.742-6.309 1.529 0 2.963.191 4.492.622V36.99c0-1.912-1.051-2.963-3.966-2.963-1.291 0-2.82.43-3.919.86-.573.24-1.004.335-1.29.335-.526 0-.765-.335-1.338-1.72-.383-.909-.478-1.434-.478-1.769 0-.526.239-.764 1.529-1.242a15.061 15.061 0 0 1 5.83-1.147c5.496 0 8.602 2.437 8.602 7.885v9.606c0 .956-.238 1.434-.908 1.911-1.242.86-4.301 2.15-8.219 2.15-5.305-.047-8.077-3.105-8.077-6.737zm8.507 2.485c1.386 0 2.772-.335 3.823-.86v-3.776c-1.338-.43-2.533-.621-3.584-.621-2.581 0-3.776 1.147-3.776 2.724 0 1.577 1.434 2.533 3.537 2.533zm13.143 1.289V34.695c0-2.198.095-2.724 1.338-3.489 1.338-.812 3.918-1.911 6.786-1.911 2.58 0 4.397.717 5.83 2.15 1.768-1.242 3.823-2.15 6.308-2.15 5.114 0 7.408 3.058 7.408 7.742v10.848c0 2.533 0 2.533-2.581 2.533-2.58 0-2.58 0-2.58-2.533V37.85c0-2.246-.908-3.44-3.059-3.44-1.195 0-2.294.525-3.059 1.146.096.86.096 1.434.096 2.485v9.893c0 2.533 0 2.533-2.628 2.533-2.581 0-2.581 0-2.581-2.533v-10.18c0-2.341-1.051-3.392-3.154-3.392-1.099 0-2.294.573-2.915.955v12.57c0 2.532 0 2.532-2.629 2.532-2.58.048-2.58.048-2.58-2.485z" fill="#000"/><path d="M25.464 18.256c0 .191 0 .382.048.573v.24c0 .19.047.382.047.573 0 .048 0 .143.048.191.048.287.096.526.144.812l.143.717 6.213 9.558-5.018-21.649a19.894 19.894 0 0 0-1.625 7.886v1.099zm20.359 3.249c.048-.287.096-.574.143-.813.048-.286.096-.525.144-.812v-.191c.047-.191.047-.383.047-.622v-.239c0-.19.048-.382.048-.573v-1.051c0-2.82-.573-5.496-1.624-7.886l-4.97 21.697 6.212-9.51zm-20.933.67-.047-.048c-.191-.191-.382-.334-.621-.525-.191-.192-.43-.335-.622-.526-.047-.048-.095-.096-.143-.096-.143-.143-.334-.239-.478-.382-.047-.048-.143-.096-.19-.143-.144-.096-.335-.24-.479-.335-.048-.048-.143-.096-.19-.143l-.718-.43c-2.437-1.386-5.018-2.247-7.646-2.533L30.052 32.21l-5.161-10.036zM10.937 37.611c.239.144.477.287.716.383.096.047.144.095.24.095.19.096.334.191.525.239.096.048.143.096.239.096.191.095.382.143.573.239.048.047.144.047.192.095.239.096.525.191.764.287.24.095.478.191.765.239h.048l11.326-.621-21.41-6.452c1.577 2.15 3.584 3.967 6.022 5.4zm15.293 3.585-11.327-.622c-.239.096-.478.144-.717.24-.334.142-.573.238-.812.334-.048.047-.144.047-.191.095-.192.096-.383.144-.574.24-.095.047-.143.095-.239.095-.191.095-.334.143-.525.239-.096.047-.144.095-.24.095-.238.144-.477.24-.716.383-2.438 1.386-4.445 3.25-6.022 5.352l21.362-6.451zM13.708 62.89c2.628-.286 5.21-1.147 7.646-2.532l.717-.43c.048-.048.144-.096.191-.144.144-.095.335-.191.478-.334.048-.048.144-.096.191-.144.144-.095.335-.239.478-.382.048-.048.096-.096.144-.096.43-.334.86-.669 1.242-1.051l5.114-10.084-16.201 15.198zm32.545-1.194c0-.19 0-.382-.048-.573v-.239c0-.191-.047-.382-.047-.621 0-.048 0-.144-.048-.191-.048-.287-.096-.526-.144-.813-.047-.239-.095-.526-.143-.764l-6.165-9.51 5.018 21.696a19.894 19.894 0 0 0 1.625-7.885v-.813c-.048-.143-.048-.239-.048-.287zm-20.359-3.248c-.095.525-.191 1.051-.287 1.624v.192c-.047.19-.047.382-.047.62v.24c0 .191-.048.382-.048.573v1.052c0 2.82.573 5.495 1.625 7.885l5.017-21.697-6.26 9.51zm34.887-16.105a5.208 5.208 0 0 0-.717-.383c-.095-.047-.143-.095-.239-.095-.191-.096-.334-.192-.526-.24-.095-.047-.143-.095-.238-.095-.192-.095-.383-.143-.574-.239-.048-.048-.143-.048-.191-.095-.239-.096-.526-.192-.765-.287a4.283 4.283 0 0 0-.717-.24l-11.326.622 21.314 6.5c-1.577-2.199-3.584-4.063-6.021-5.448zM46.874 57.826c.191.191.43.382.621.526.192.19.43.334.622.525.048.048.095.096.143.096.144.143.335.239.478.382.048.048.143.096.191.144.144.095.335.238.478.334.048.048.144.096.191.143l.717.43c2.437 1.386 5.018 2.247 7.647 2.533L41.76 47.742l5.113 10.084zm11.183-40.812c-2.628.286-5.209 1.147-7.646 2.533l-.717.43c-.048.047-.144.095-.191.143-.144.096-.335.191-.478.334-.096.048-.144.096-.24.144-.142.096-.334.239-.477.334-.048.048-.096.096-.143.096-.192.143-.43.335-.622.526-.19.19-.382.334-.573.525l-5.21 10.18 16.297-15.245z" fill="#1D1D1B"/><path d="M70.769 20.454 45.297 36.081v-1.529l-1.338-.765 26.284-14.241a19.914 19.914 0 0 0-10.561-2.58l-15.77 16.773-2.247-1.29-.096-.048-.573-.334-.813-.478-.573-.334-.048-.048-2.294-1.29 6.69-22.08C42.192 4.588 39.61 1.865 36.409 0l.765 29.869-1.338-.765-1.338.765L35.26 0c-3.154 1.864-5.735 4.588-7.503 7.838l6.739 22.03-2.247 1.29-.095.049-.574.334-.812.478-.573.335-.096.095-2.294 1.338-15.723-16.87c-3.68-.143-7.36.765-10.561 2.581l26.236 14.29-1.338.764v1.53L.948 20.405A20.4 20.4 0 0 0 4.007 30.92l22.413 5.209v7.742l-22.46 5.21A20.363 20.363 0 0 0 .9 59.545l25.472-15.627v1.529l1.338.765L1.522 60.454a19.915 19.915 0 0 0 10.561 2.58l15.723-16.821 2.294 1.29.048.048.573.334.813.478.573.335.048.047 2.294 1.29-6.69 22.08c1.72 3.25 4.348 5.973 7.55 7.885l-.765-29.869 1.339.765 1.338-.765L36.456 80c3.202-1.864 5.782-4.588 7.55-7.885l-6.738-22.031 2.294-1.29.048-.048.574-.335.812-.478.573-.334.096-.048 2.294-1.29 15.723 16.821c3.727.144 7.36-.764 10.61-2.58L43.958 46.165l1.338-.765v-1.529l25.472 15.58c-.048-3.68-1.1-7.312-3.059-10.419l-22.46-5.209v-7.742l22.46-5.209c1.96-3.106 3.011-6.69 3.059-10.418z" fill="#1D1D1B"/><path d="m45.488 38.757 11.326.622h.048c.24-.096.478-.144.765-.24.239-.095.526-.19.764-.286.048-.048.144-.048.192-.096.19-.095.382-.143.573-.239.096-.047.144-.095.24-.095.19-.096.334-.191.525-.24.095-.047.143-.095.239-.095.239-.143.478-.239.717-.382 2.437-1.386 4.444-3.25 6.021-5.353l-21.41 6.404z" fill="#1D1D1B"/></svg>