<svg width="483" height="323" viewBox="0 0 483 323" fill="none" xmlns="http://www.w3.org/2000/svg"><path d="M322.212 137.739l-80.35 46.262v92.525l80.35 46.262 80.35-46.262v-92.525l-80.35-46.262z" fill="url(#paint0_linear_1963_20052)"/><path d="M401.75.576l-80.35 46.06v92.118l80.35 46.059 80.35-46.059V46.635L401.75.576z" fill="#252525"/><path d="M241.05.576l-80.35 46.06v92.118l80.35 46.059 80.35-46.059V46.635L241.05.576z" fill="#252525" fill-opacity=".7"/><path d="M80.35.576L0 46.636v92.118l80.35 46.059 80.35-46.059V46.635L80.35.576z" fill="#252525" fill-opacity=".47"/><path d="M161.512 137.739l80.35 46.262v92.525l-80.35 46.262-80.35-46.262v-92.525l80.35-46.262z" fill="#0D0D0D"/><defs><linearGradient id="paint0_linear_1963_20052" x1="283.254" y1="125.565" x2="217.678" y2="219.712" gradientUnits="userSpaceOnUse"><stop stop-color="#6FB2FF"/><stop offset="1" stop-color="#946FFF"/></linearGradient></defs></svg>