<svg width="321" height="363" viewBox="0 0 321 363" fill="none" xmlns="http://www.w3.org/2000/svg"><mask id="a" style="mask-type:alpha" maskUnits="userSpaceOnUse" x="0" y="0" width="321" height="363"><path fill="#D9D9D9" d="M0 0h321v363H0z"/></mask><g opacity=".07" mask="url(#a)"><path d="M241.05 275.138L160.7 321.4v92.525l80.35 46.262 80.35-46.262V321.4l-80.35-46.262z" fill="url(#paint0_linear_1964_20061)"/><path d="M80.35 0l80.35 46.06v92.118l-80.35 46.059L0 138.178V46.059L80.35 0zM241.05 90.9l-80.35 46.06v92.119l80.35 46.059 80.35-46.059V136.96L241.05 90.9zM80.35 275.138L160.7 321.4v92.525l-80.35 46.262L0 413.925V321.4l80.35-46.262z" fill="#0D0D0D"/></g><defs><linearGradient id="paint0_linear_1964_20061" x1="202.093" y1="262.964" x2="136.516" y2="357.111" gradientUnits="userSpaceOnUse"><stop stop-color="#6FB2FF"/><stop offset="1" stop-color="#946FFF"/></linearGradient></defs></svg>