<?xml version="1.0" standalone="no"?><!DOCTYPE svg PUBLIC "-//W3C//DTD SVG 1.1//EN" "http://www.w3.org/Graphics/SVG/1.1/DTD/svg11.dtd"><svg t="1681696909163" class="icon" viewBox="0 0 1024 1024" version="1.1" xmlns="http://www.w3.org/2000/svg" p-id="2783" xmlns:xlink="http://www.w3.org/1999/xlink" width="200" height="200"><path d="M27.968 338.688a26.688 26.688 0 0 1 0-48.192l460.928-221.248a53.44 53.44 0 0 1 46.272 0l460.864 221.248a26.688 26.688 0 0 1 0 48.192l-218.176 104.576 79.552 281.152c4.096 14.336 8.96 32.768 10.048 51.84a106.88 106.88 0 0 1-14.72 63.552c-24.768 39.936-71.424 68.992-127.744 88.192-57.408 19.456-129.728 30.464-212.928 30.464-83.2 0-155.52-11.008-212.928-30.464-56.32-19.2-103.04-48.256-127.744-88.192a106.88 106.88 0 0 1-14.72-63.552c1.088-19.072 5.952-37.504 9.984-51.84L246.144 443.52l-82.688-39.68v190.016a12.8 12.8 0 0 1-12.8 12.8H90.88a12.8 12.8 0 0 1-12.8-12.8V362.752l-50.048-24.064z m288.448 138.624L240.64 745.28a171.712 171.712 0 0 0-7.232 35.392c-0.576 9.472 1.024 14.976 3.328 18.688 11.328 18.24 38.592 39.36 87.232 55.936 47.552 16.128 111.232 26.304 188.16 26.304s140.608-10.176 188.16-26.304c48.64-16.576 75.904-37.696 87.232-55.936 2.304-3.712 3.84-9.216 3.328-18.688a172.224 172.224 0 0 0-7.232-35.392l-75.968-268.352L534.592 560a53.44 53.44 0 0 1-46.272 0L316.416 477.312zM155.2 314.624l356.288 171.2 357.184-171.264L512 143.36 155.2 314.624z" fill="#2c2c2c" p-id="2784"></path></svg>