<svg width="75" height="87" viewBox="0 0 75 87" fill="none" xmlns="http://www.w3.org/2000/svg">
<path d="M26.1105 20.4418C26.1105 20.6463 26.1105 20.8509 26.1613 21.0554C26.1613 21.1576 26.1613 21.2599 26.1613 21.311C26.1613 21.5156 26.2121 21.7201 26.2121 21.9246C26.2121 21.9757 26.2121 22.078 26.2629 22.1291C26.3137 22.4359 26.3645 22.6916 26.4153 22.9983C26.4661 23.254 26.5169 23.5096 26.5677 23.7653L33.1715 33.9914L27.8377 10.8293C26.7201 13.4369 26.1105 16.3002 26.1105 19.2658C26.1105 19.5726 26.1105 19.8283 26.1105 20.135C26.1105 20.2884 26.1105 20.3396 26.1105 20.4418Z" fill="#855EFF"/>
<path d="M47.7508 23.9187C47.8016 23.6119 47.8524 23.3051 47.9032 23.0495C47.954 22.7427 48.0048 22.487 48.0556 22.1803C48.0556 22.1291 48.0556 22.0269 48.0556 21.9757C48.1063 21.7712 48.1064 21.5667 48.1064 21.311C48.1064 21.2088 48.1064 21.1065 48.1064 21.0554C48.1064 20.8509 48.1571 20.6463 48.1571 20.4418C48.1571 20.3396 48.1571 20.2884 48.1571 20.1862C48.1571 19.8794 48.1571 19.6237 48.1571 19.3169C48.1571 16.3002 47.5476 13.4369 46.43 10.8804L41.1469 34.0937L47.7508 23.9187Z" fill="#855EFF"/>
<path d="M25.5009 24.6345L25.4501 24.5834C25.2469 24.3789 25.0438 24.2255 24.7898 24.021C24.5866 23.8164 24.3326 23.663 24.1294 23.4585C24.0786 23.4074 24.0278 23.3563 23.977 23.3563C23.8246 23.2029 23.6214 23.1006 23.469 22.9472C23.4182 22.8961 23.3166 22.845 23.2658 22.7938C23.1134 22.6916 22.9102 22.5382 22.7578 22.4359C22.707 22.3848 22.6054 22.3336 22.5546 22.2825C22.3006 22.1291 22.0466 21.9757 21.7926 21.8223C19.2019 20.3396 16.4588 19.4192 13.6648 19.1124L30.9872 35.3719L25.5009 24.6345Z" fill="#855EFF"/>
<path d="M10.6677 41.1497C10.9217 41.3031 11.1757 41.4564 11.4297 41.5587C11.5313 41.6098 11.5821 41.661 11.6837 41.661C11.8869 41.7632 12.0393 41.8655 12.2425 41.9166C12.3441 41.9678 12.3949 42.0189 12.4965 42.0189C12.6997 42.1211 12.9029 42.1723 13.1061 42.2745C13.1569 42.3257 13.2585 42.3257 13.3093 42.3768C13.5632 42.4791 13.868 42.5813 14.122 42.6836C14.376 42.7858 14.63 42.8881 14.9348 42.9392C14.9348 42.9392 14.9348 42.9392 14.9856 42.9392L27.0249 42.2745L4.26709 35.3719C5.94345 37.6728 8.07699 39.6158 10.6677 41.1497Z" fill="#855EFF"/>
<path d="M26.9233 44.9845L14.884 44.3198C14.63 44.422 14.376 44.4731 14.122 44.5754C13.7664 44.7288 13.5124 44.8311 13.2585 44.9333C13.2077 44.9844 13.1061 44.9844 13.0553 45.0356C12.8521 45.1378 12.6489 45.189 12.4457 45.2912C12.3441 45.3424 12.2933 45.3935 12.1917 45.3935C11.9885 45.4958 11.8361 45.5469 11.6329 45.6491C11.5313 45.7003 11.4805 45.7514 11.3789 45.7514C11.1249 45.9048 10.8709 46.0071 10.6169 46.1604C8.02619 47.6432 5.89265 49.6373 4.21629 51.8871L26.9233 44.9845Z" fill="#855EFF"/>
<path d="M13.614 68.1977C16.408 67.8909 19.1511 66.9706 21.7418 65.4878C21.9958 65.3344 22.2498 65.181 22.5038 65.0276C22.5546 64.9765 22.6562 64.9253 22.707 64.8742C22.8594 64.7719 23.0626 64.6697 23.215 64.5163C23.2658 64.4652 23.3674 64.414 23.4182 64.3629C23.5706 64.2606 23.7738 64.1073 23.9262 63.9539C23.977 63.9027 24.0278 63.8516 24.0786 63.8516C24.5358 63.4937 24.993 63.1358 25.3993 62.7267L30.8348 51.9382L13.614 68.1977Z" fill="#855EFF"/>
<path d="M48.2079 66.9194C48.2079 66.7149 48.2079 66.5104 48.1571 66.3059C48.1571 66.2036 48.1571 66.1013 48.1571 66.0502C48.1571 65.8457 48.1063 65.6412 48.1063 65.3855C48.1063 65.3344 48.1063 65.2321 48.0556 65.181C48.0048 64.8742 47.954 64.6186 47.9032 64.3118C47.8524 64.0561 47.8016 63.7493 47.7508 63.4937L41.1977 53.3187L46.5316 76.532C47.6492 73.9243 48.2587 71.061 48.2587 68.0954C48.2587 67.7886 48.2587 67.533 48.2587 67.2262C48.2079 67.0728 48.2079 66.9706 48.2079 66.9194Z" fill="#855EFF"/>
<path d="M26.5677 63.4426C26.4661 64.005 26.3645 64.5674 26.2629 65.181C26.2629 65.2321 26.2629 65.3344 26.2629 65.3855C26.2121 65.59 26.2121 65.7945 26.2121 66.0502C26.2121 66.1525 26.2121 66.2547 26.2121 66.3059C26.2121 66.5104 26.1613 66.7149 26.1613 66.9194C26.1613 67.0217 26.1613 67.0728 26.1613 67.1751C26.1613 67.4819 26.1613 67.7375 26.1613 68.0443C26.1613 71.061 26.7709 73.9243 27.8885 76.4808L33.2223 53.2676L26.5677 63.4426Z" fill="#855EFF"/>
<path d="M63.6507 46.2116C63.3968 46.0582 63.1428 45.9048 62.8888 45.8025C62.7872 45.7514 62.7364 45.7003 62.6348 45.7003C62.4316 45.598 62.2792 45.4958 62.076 45.4446C61.9744 45.3935 61.9236 45.3424 61.822 45.3424C61.6188 45.2401 61.4156 45.189 61.2124 45.0867C61.1616 45.0356 61.06 45.0356 61.0092 44.9844C60.7552 44.8822 60.4504 44.7799 60.1964 44.6777C59.9424 44.5754 59.6884 44.4731 59.4345 44.422L47.3952 45.0867L70.0514 52.0405C68.375 49.6884 66.2415 47.6944 63.6507 46.2116Z" fill="#855EFF"/>
<path d="M48.8683 62.7779C49.0715 62.9824 49.3255 63.1869 49.5287 63.3403C49.7319 63.5448 49.9859 63.6982 50.1891 63.9027C50.2399 63.9539 50.2907 64.005 50.3415 64.005C50.4939 64.1584 50.6971 64.2606 50.8495 64.414C50.9003 64.4652 51.0019 64.5163 51.0527 64.5674C51.2051 64.6697 51.4083 64.8231 51.5607 64.9253C51.6115 64.9765 51.7131 65.0276 51.7639 65.0787C52.0179 65.2321 52.2718 65.3855 52.5258 65.5389C55.1166 67.0217 57.8597 67.942 60.6536 68.2488L43.4329 51.9893L48.8683 62.7779Z" fill="#855EFF"/>
<path d="M60.7552 19.1124C57.9613 19.4192 55.2182 20.3396 52.6274 21.8223C52.3734 21.9757 52.1194 22.1291 51.8655 22.2825C51.8147 22.3336 51.7131 22.3848 51.6623 22.4359C51.5099 22.5382 51.3067 22.6404 51.1543 22.7938C51.0527 22.845 51.0019 22.8961 50.9003 22.9472C50.7479 23.0495 50.5447 23.2029 50.3923 23.3051C50.3415 23.3563 50.2907 23.4074 50.2399 23.4074C50.0367 23.5608 49.7827 23.7653 49.5795 23.9698C49.3763 24.1743 49.1731 24.3277 48.9699 24.5323L43.4329 35.423L60.7552 19.1124Z" fill="#855EFF"/>
<path d="M74.2677 22.7938L47.192 39.5135V37.8773L45.7696 37.0592L73.7089 21.8223C70.3054 19.8794 66.3939 18.9079 62.4824 19.0613L45.7188 37.0081L43.3313 35.6276L43.2297 35.5764L42.6201 35.2185L41.7565 34.7072L41.1469 34.3493L41.0961 34.2982L38.6578 32.9177L45.7696 9.29537C43.8901 5.8185 41.1469 2.90406 37.7434 0.909973L38.5562 32.8665L37.1338 32.0484L35.7115 32.8665L36.5243 0.909973C33.1715 2.90406 30.4284 5.8185 28.5489 9.29537L35.7115 32.8665L33.3239 34.247L33.2223 34.2982L32.6128 34.6561L31.7492 35.1674L31.1396 35.5253L31.038 35.6276L28.5997 37.0592L11.8869 19.0102C7.97539 18.8568 4.06389 19.8283 0.660383 21.7712L28.5489 37.0592L27.1265 37.8773V39.5135L0.0507987 22.7427C0.101597 26.7309 1.21917 30.6168 3.30191 33.9914L27.1265 39.5646V47.8478L3.25112 53.421C1.16837 56.7956 0.0507987 60.6815 0 64.6185L27.0757 47.8989V49.5351L28.4981 50.3531L0.660383 65.59C4.06389 67.533 7.97539 68.5045 11.8869 68.3511L28.5997 50.3531L31.038 51.7337L31.0888 51.7848L31.6984 52.1427L32.562 52.654L33.1715 53.0119L33.2223 53.0631L35.6607 54.4436L28.5489 78.0659C30.3776 81.5427 33.1715 84.4572 36.5751 86.5024L35.7623 54.5458L37.1846 55.3639L38.607 54.5458L37.7942 86.5024C41.1977 84.5083 43.9409 81.5939 45.8204 78.0659L38.6578 54.4947L41.0961 53.1142L41.1469 53.0631L41.7565 52.7052L42.6201 52.1938L43.2297 51.8359L43.3313 51.7848L45.7696 50.4043L62.4824 68.4022C66.4447 68.5556 70.3054 67.5841 73.7597 65.6412L45.7696 50.302L47.192 49.4839V47.8478L74.2677 64.5163C74.2169 60.5792 73.0993 56.6933 71.0166 53.3698L47.1412 47.7966V39.5135L71.0166 33.9403C73.0993 30.6168 74.2169 26.782 74.2677 22.7938Z" fill="#855EFF"/>
<path d="M47.3952 42.3768L59.4345 43.0415C59.4345 43.0415 59.4345 43.0415 59.4853 43.0415C59.7393 42.9392 59.9932 42.8881 60.298 42.7858C60.552 42.6836 60.8568 42.5813 61.1108 42.4791C61.1616 42.4279 61.2632 42.4279 61.314 42.3768C61.5172 42.2745 61.7204 42.2234 61.9236 42.1211C62.0252 42.07 62.076 42.0189 62.1776 42.0189C62.3808 41.9166 62.5332 41.8144 62.7364 41.7632C62.838 41.7121 62.8888 41.661 62.9904 41.661C63.2444 41.5076 63.4984 41.4053 63.7523 41.2519C66.3431 39.7691 68.4766 37.7751 70.153 35.5253L47.3952 42.3768Z" fill="#855EFF"/>
</svg>
