<svg width="80" height="80" xmlns="http://www.w3.org/2000/svg" fill="none">

 <g>
  <title>Layer 1</title>
  <path id="svg_2" fill="#1D1D1B" d="m25.464,18.256c0,0.191 0,0.382 0.048,0.573l0,0.24c0,0.19 0.047,0.382 0.047,0.573c0,0.048 0,0.143 0.048,0.191c0.048,0.287 0.096,0.526 0.144,0.812l0.143,0.717l6.213,9.558l-5.018,-21.649a19.894,19.894 0 0 0 -1.625,7.886l0,1.099zm20.359,3.249c0.048,-0.287 0.096,-0.574 0.143,-0.813c0.048,-0.286 0.096,-0.525 0.144,-0.812l0,-0.191c0.047,-0.191 0.047,-0.383 0.047,-0.622l0,-0.239c0,-0.19 0.048,-0.382 0.048,-0.573l0,-1.051c0,-2.82 -0.573,-5.496 -1.624,-7.886l-4.97,21.697l6.212,-9.51zm-20.933,0.67l-0.047,-0.048c-0.191,-0.191 -0.382,-0.334 -0.621,-0.525c-0.191,-0.192 -0.43,-0.335 -0.622,-0.526c-0.047,-0.048 -0.095,-0.096 -0.143,-0.096c-0.143,-0.143 -0.334,-0.239 -0.478,-0.382c-0.047,-0.048 -0.143,-0.096 -0.19,-0.143c-0.144,-0.096 -0.335,-0.24 -0.479,-0.335c-0.048,-0.048 -0.143,-0.096 -0.19,-0.143l-0.718,-0.43c-2.437,-1.386 -5.018,-2.247 -7.646,-2.533l16.296,15.196l-5.161,-10.036l-0.001,0.001zm-13.953,15.436c0.239,0.144 0.477,0.287 0.716,0.383c0.096,0.047 0.144,0.095 0.24,0.095c0.19,0.096 0.334,0.191 0.525,0.239c0.096,0.048 0.143,0.096 0.239,0.096c0.191,0.095 0.382,0.143 0.573,0.239c0.048,0.047 0.144,0.047 0.192,0.095c0.239,0.096 0.525,0.191 0.764,0.287c0.24,0.095 0.478,0.191 0.765,0.239l0.048,0l11.326,-0.621l-21.41,-6.452c1.577,2.15 3.584,3.967 6.022,5.4zm15.293,3.585l-11.327,-0.622c-0.239,0.096 -0.478,0.144 -0.717,0.24c-0.334,0.142 -0.573,0.238 -0.812,0.334c-0.048,0.047 -0.144,0.047 -0.191,0.095c-0.192,0.096 -0.383,0.144 -0.574,0.24c-0.095,0.047 -0.143,0.095 -0.239,0.095c-0.191,0.095 -0.334,0.143 -0.525,0.239c-0.096,0.047 -0.144,0.095 -0.24,0.095c-0.238,0.144 -0.477,0.24 -0.716,0.383c-2.438,1.386 -4.445,3.25 -6.022,5.352l21.362,-6.451l0.001,0zm-12.522,21.694c2.628,-0.286 5.21,-1.147 7.646,-2.532l0.717,-0.43c0.048,-0.048 0.144,-0.096 0.191,-0.144c0.144,-0.095 0.335,-0.191 0.478,-0.334c0.048,-0.048 0.144,-0.096 0.191,-0.144c0.144,-0.095 0.335,-0.239 0.478,-0.382c0.048,-0.048 0.096,-0.096 0.144,-0.096c0.43,-0.334 0.86,-0.669 1.242,-1.051l5.114,-10.084l-16.201,15.198l0,-0.001zm32.545,-1.194c0,-0.19 0,-0.382 -0.048,-0.573l0,-0.239c0,-0.191 -0.047,-0.382 -0.047,-0.621c0,-0.048 0,-0.144 -0.048,-0.191c-0.048,-0.287 -0.096,-0.526 -0.144,-0.813c-0.047,-0.239 -0.095,-0.526 -0.143,-0.764l-6.165,-9.51l5.018,21.696a19.894,19.894 0 0 0 1.625,-7.885l0,-0.813c-0.048,-0.143 -0.048,-0.239 -0.048,-0.287zm-20.359,-3.248c-0.095,0.525 -0.191,1.051 -0.287,1.624l0,0.192c-0.047,0.19 -0.047,0.382 -0.047,0.62l0,0.24c0,0.191 -0.048,0.382 -0.048,0.573l0,1.052c0,2.82 0.573,5.495 1.625,7.885l5.017,-21.697l-6.26,9.51l0,0.001zm34.887,-16.105a5.208,5.208 0 0 0 -0.717,-0.383c-0.095,-0.047 -0.143,-0.095 -0.239,-0.095c-0.191,-0.096 -0.334,-0.192 -0.526,-0.24c-0.095,-0.047 -0.143,-0.095 -0.238,-0.095c-0.192,-0.095 -0.383,-0.143 -0.574,-0.239c-0.048,-0.048 -0.143,-0.048 -0.191,-0.095c-0.239,-0.096 -0.526,-0.192 -0.765,-0.287a4.283,4.283 0 0 0 -0.717,-0.24l-11.326,0.622l21.314,6.5c-1.577,-2.199 -3.584,-4.063 -6.021,-5.448zm-13.907,15.483c0.191,0.191 0.43,0.382 0.621,0.526c0.192,0.19 0.43,0.334 0.622,0.525c0.048,0.048 0.095,0.096 0.143,0.096c0.144,0.143 0.335,0.239 0.478,0.382c0.048,0.048 0.143,0.096 0.191,0.144c0.144,0.095 0.335,0.238 0.478,0.334c0.048,0.048 0.144,0.096 0.191,0.143l0.717,0.43c2.437,1.386 5.018,2.247 7.647,2.533l-16.202,-15.197l5.113,10.084l0.001,0zm11.183,-40.812c-2.628,0.286 -5.209,1.147 -7.646,2.533l-0.717,0.43c-0.048,0.047 -0.144,0.095 -0.191,0.143c-0.144,0.096 -0.335,0.191 -0.478,0.334c-0.096,0.048 -0.144,0.096 -0.24,0.144c-0.142,0.096 -0.334,0.239 -0.477,0.334c-0.048,0.048 -0.096,0.096 -0.143,0.096c-0.192,0.143 -0.43,0.335 -0.622,0.526c-0.19,0.19 -0.382,0.334 -0.573,0.525l-5.21,10.18l16.297,-15.245z"/>
  <path id="svg_3" fill="#1D1D1B" d="m70.769,20.454l-25.472,15.627l0,-1.529l-1.338,-0.765l26.284,-14.241a19.914,19.914 0 0 0 -10.561,-2.58l-15.77,16.773l-2.247,-1.29l-0.096,-0.048l-0.573,-0.334l-0.813,-0.478l-0.573,-0.334l-0.048,-0.048l-2.294,-1.29l6.69,-22.08c-1.766,-3.249 -4.348,-5.972 -7.549,-7.837l0.765,29.869l-1.338,-0.765l-1.338,0.765l0.762,-29.869c-3.154,1.864 -5.735,4.588 -7.503,7.838l6.739,22.03l-2.247,1.29l-0.095,0.049l-0.574,0.334l-0.812,0.478l-0.573,0.335l-0.096,0.095l-2.294,1.338l-15.723,-16.87c-3.68,-0.143 -7.36,0.765 -10.561,2.581l26.236,14.29l-1.338,0.764l0,1.53l-25.471,-15.677a20.4,20.4 0 0 0 3.059,10.515l22.413,5.209l0,7.742l-22.46,5.21a20.363,20.363 0 0 0 -3.06,10.464l25.472,-15.627l0,1.529l1.338,0.765l-26.188,14.242a19.915,19.915 0 0 0 10.561,2.58l15.723,-16.821l2.294,1.29l0.048,0.048l0.573,0.334l0.813,0.478l0.573,0.335l0.048,0.047l2.294,1.29l-6.69,22.08c1.72,3.25 4.348,5.973 7.55,7.885l-0.765,-29.869l1.339,0.765l1.338,-0.765l-0.765,29.869c3.202,-1.864 5.782,-4.588 7.55,-7.885l-6.738,-22.031l2.294,-1.29l0.048,-0.048l0.574,-0.335l0.812,-0.478l0.573,-0.334l0.096,-0.048l2.294,-1.29l15.723,16.821c3.727,0.144 7.36,-0.764 10.61,-2.58l-26.334,-14.337l1.338,-0.765l0,-1.529l25.472,15.58c-0.048,-3.68 -1.1,-7.312 -3.059,-10.419l-22.46,-5.209l0,-7.742l22.46,-5.209c1.96,-3.106 3.011,-6.69 3.059,-10.418l0.001,0z"/>
  <path id="svg_4" fill="#1D1D1B" d="m45.488,38.757l11.326,0.622l0.048,0c0.24,-0.096 0.478,-0.144 0.765,-0.24c0.239,-0.095 0.526,-0.19 0.764,-0.286c0.048,-0.048 0.144,-0.048 0.192,-0.096c0.19,-0.095 0.382,-0.143 0.573,-0.239c0.096,-0.047 0.144,-0.095 0.24,-0.095c0.19,-0.096 0.334,-0.191 0.525,-0.24c0.095,-0.047 0.143,-0.095 0.239,-0.095c0.239,-0.143 0.478,-0.239 0.717,-0.382c2.437,-1.386 4.444,-3.25 6.021,-5.353l-21.41,6.404z"/>
 </g>
</svg>