<svg width="70" height="70" viewBox="0 0 70 70" fill="none" xmlns="http://www.w3.org/2000/svg">
<path d="M59.557 62.3759H35.0002C31.3056 62.3759 27.7201 61.6518 24.3435 60.2236C21.0833 58.8446 18.1558 56.8711 15.6425 54.3577C13.1291 51.8443 11.1556 48.917 9.77663 45.6567C8.34847 42.28 7.62427 38.6946 7.62427 35C7.62427 31.3054 8.34847 27.7199 9.77663 24.3432C11.1556 21.083 13.1291 18.1556 15.6425 15.6422C18.1558 13.1289 21.0833 11.1553 24.3435 9.77639C27.7201 8.34815 31.3056 7.62402 35.0002 7.62402C38.6948 7.62402 42.2803 8.34822 45.657 9.77639C48.9172 11.1553 51.8447 13.1289 54.358 15.6422C56.8713 18.1556 58.8449 21.083 60.2238 24.3432C61.652 27.7199 62.3762 31.3054 62.3762 35C62.3762 38.7342 61.6369 42.3552 60.1789 45.7622C59.1064 48.2685 57.6827 50.575 55.933 52.6456L61.3456 58.0581C61.6993 58.4118 61.9401 58.8625 62.0377 59.3531C62.1353 59.8438 62.0852 60.3523 61.8937 60.8145C61.7023 61.2766 61.3781 61.6717 60.9622 61.9496C60.5463 62.2275 60.0573 62.3759 59.557 62.3759ZM35.0002 12.6826C22.6944 12.6826 12.6829 22.6941 12.6829 35C12.6829 47.3058 22.6944 57.3173 35.0002 57.3173H53.4508L50.6354 54.502C50.3993 54.2659 50.2123 53.9854 50.0851 53.6766C49.958 53.3679 49.8933 53.037 49.8946 52.7031C49.896 52.3692 49.9635 52.0389 50.0931 51.7312C50.2228 51.4235 50.4121 51.1446 50.6501 50.9104C54.9497 46.6808 57.3175 41.0304 57.3175 35C57.3176 22.6941 47.3061 12.6826 35.0002 12.6826Z" fill="#0F0F0F"/>
<path d="M33.563 48.7169C33.184 48.717 32.8098 48.6318 32.4681 48.4678C32.1264 48.3038 31.826 48.065 31.589 47.7693C31.3519 47.4735 31.1844 47.1283 31.0988 46.7591C31.0131 46.3898 31.0115 46.0061 31.0941 45.6362L33.3516 35.5308C32.4282 35.4649 31.5753 34.8926 31.1951 33.9798C30.658 32.6902 31.2679 31.2095 32.5574 30.6724L35.8399 29.3052C36.2678 29.127 36.7364 29.0698 37.1945 29.1398C37.6527 29.2098 38.0828 29.4043 38.4379 29.7022C38.793 30.0001 39.0594 30.3898 39.2081 30.8287C39.3568 31.2677 39.382 31.7391 39.2809 32.1915L37.0195 42.3148C37.8591 42.4323 38.6204 42.9691 38.9868 43.8022C39.5492 45.0809 38.9684 46.5734 37.6897 47.1357L34.5807 48.5029C34.26 48.644 33.9134 48.7169 33.563 48.7169ZM34.1618 26.8803C33.1037 26.8803 32.1175 26.2112 31.7634 25.1525C31.3204 23.8278 32.0352 22.3946 33.3598 21.9516L35.8127 21.1313C37.1372 20.6882 38.5706 21.403 39.0136 22.7277C39.4566 24.0525 38.7418 25.4856 37.4172 25.9287L34.9643 26.749C34.7056 26.8358 34.4346 26.8802 34.1618 26.8803Z" fill="#946FFF"/>
</svg>
