<?xml version="1.0" standalone="no"?><!DOCTYPE svg PUBLIC "-//W3C//DTD SVG 1.1//EN" "http://www.w3.org/Graphics/SVG/1.1/DTD/svg11.dtd"><svg t="1663133746676" class="icon" viewBox="0 0 1024 1024" version="1.1" xmlns="http://www.w3.org/2000/svg" p-id="35235" xmlns:xlink="http://www.w3.org/1999/xlink" width="200" height="200"><path d="M454.393489 253.760326h383.973958c15.00061 0 28.75117 5.000203 38.959918 13.125534 11.4588 9.16704 18.542421 22.084232 18.542421 36.459817v107.296032h-38.334893l-691.278128-1.041709H127.921872v-106.462665c0-14.583927 7.083622-27.292777 18.542421-36.459817 10.208749-8.125331 23.959308-13.125534 38.959919-13.125534h38.334893v-29.376196c0-10.625432 4.375178-20.209156 11.250458-27.292777 7.083622-7.083622 16.667345-11.4588 27.292777-11.458799h153.547914c10.625432 0 20.209156 4.375178 27.292778 11.458799 6.87528 7.083622 11.250458 16.667345 11.250457 27.292777v29.584538z" fill="#F9A825" p-id="35236"></path><path d="M185.632553 320.013021h652.943235c15.625636 0 30.001221 6.250254 40.418312 16.459003 10.625432 10.208749 17.084028 24.584334 17.084028 40.20997v405.224822c0 15.625636-6.458596 29.792879-17.084028 40.209969-10.417091 10.208749-24.792675 16.459003-40.418312 16.459003H185.632553c-15.625636 0-30.001221-6.250254-40.418311-16.459003-10.625432-10.208749-17.084028-24.584334-17.084028-40.209969V376.681994c0-15.625636 6.458596-29.792879 17.084028-40.20997 10.417091-10.208749 24.584334-16.459003 40.418311-16.459003z" fill="#FBC02D" p-id="35237"></path></svg>