<svg width="70" height="70" viewBox="0 0 70 70" fill="none" xmlns="http://www.w3.org/2000/svg">
<path d="M56.8748 26.25H39.3748V8.75H13.1248V61.25H56.8748V26.25ZM55.0985 21.875L43.7498 10.5262V21.875H55.0985ZM10.9373 4.375H43.7498L61.2498 21.875V63.4375C61.2498 64.0762 61.0449 64.6005 60.6351 65.0103C60.2253 65.4201 59.701 65.625 59.0623 65.625H10.9373C10.2985 65.625 9.77424 65.4201 9.36444 65.0103C8.95465 64.6005 8.74976 64.0762 8.74976 63.4375V6.5625C8.74976 5.92375 8.95465 5.39948 9.36444 4.98969C9.77424 4.5799 10.2985 4.375 10.9373 4.375Z" fill="#0F0F0F"/>
<path d="M22 35.125H48.25V39.5H22V35.125ZM22 22H32.9375V26.375H22V22ZM22 48.25H48.25V52.625H22V48.25Z" fill="#946FFF"/>
</svg>
