<svg class="icon" viewBox="0 0 1024 1024" xmlns="http://www.w3.org/2000/svg" width="200" height="200"><path d="M294.5 240.06c-27.61 0-50 22.39-50 50v525.83h303.36s-43.44-55.55-36.98-150.74c6.46-95.18 85.73-138.33 135.31-151.39 49.58-13.06 131.74 11.17 131.74 11.17V240.06H294.5z" fill="#E9F1FF"/><path d="M546.42 840.89H194.5c-41.36 0-75-33.65-75-75V190.06c0-41.35 33.64-75 75-75h531.99c41.36 0 75 33.65 75 75V512c0 13.81-11.19 25-25 25s-25-11.19-25-25V190.06c0-13.79-11.21-25-25-25H194.5c-13.79 0-25 11.21-25 25v575.83c0 13.79 11.21 25 25 25h351.92c13.81 0 25 11.19 25 25s-11.19 25-25 25z" fill="#2C5CCB"/><path d="M695.7 909.2c-117.83 0-213.7-95.86-213.7-213.7 0-57.08 22.23-110.74 62.59-151.11 40.36-40.36 94.03-62.59 151.11-62.59 57.08 0 110.74 22.23 151.11 62.59 40.36 40.36 62.59 94.03 62.59 151.11s-22.23 110.74-62.59 151.11c-40.37 40.36-94.03 62.59-151.11 62.59zm0-377.4c-90.26 0-163.7 73.43-163.7 163.7 0 90.26 73.43 163.7 163.7 163.7s163.7-73.43 163.7-163.7c-.01-90.26-73.44-163.7-163.7-163.7z" fill="#2C5CCB"/><path d="M679.56 774.93a37.21 37.21 0 0 1-18.15-4.72 37.236 37.236 0 0 1-19.05-32.47v-84.47c0-13.46 7.3-25.9 19.05-32.47a37.212 37.212 0 0 1 37.64.79l68.67 42.24c11.09 6.82 17.71 18.67 17.71 31.69s-6.62 24.87-17.71 31.69l-68.67 42.24a37.391 37.391 0 0 1-19.49 5.48zm12.8-98.77v38.67l31.44-19.33-31.44-19.34zm49.16 30.24c.01 0 .01 0 0 0zM307.85 336.99c-24.06-9.43-31.4-16.21-31.4-29 0-9.63 7.17-20.87 27.37-20.87 13.78 0 24.32 4.22 30.73 7.77a5.994 5.994 0 0 0 8.59-3.35l6.31-18.89a6 6 0 0 0-2.71-7.1c-6.23-3.58-19.99-9.58-42.14-9.58-18.18 0-33.9 5.3-45.48 15.33-11.48 9.95-17.8 23.92-17.8 39.35 0 25.72 16.57 44.18 50.67 56.44 24.65 9.61 29.48 18.29 29.48 30.03 0 15.4-11.61 24.6-31.05 24.6-12.83 0-26.97-4.04-37.82-10.8a6.013 6.013 0 0 0-5.3-.52c-1.75.66-3.09 2.1-3.62 3.9l-5.78 19.42c-.75 2.51.22 5.22 2.39 6.69 10.88 7.34 30.84 12.47 48.55 12.47 21.08 0 38.62-5.88 50.73-17.01 11.14-10.24 17.28-24.66 17.28-40.6 0-27.43-14.65-44.86-49-58.28zm227.99 108.23c-10.54-1.87-23.53-4.62-36.59-7.71 25.45-15.64 40.23-46.21 40.23-84.82 0-27.67-7.99-51.58-23.1-69.13-15.54-18.05-37.07-27.59-62.26-27.59-25.14 0-47.75 9.83-63.67 27.68-16.25 18.23-24.84 43.39-24.84 72.77 0 64.61 42.1 95.13 83.82 96.72h.23c2.36 0 5.6 1.17 8.79 2.32 20.91 7.33 44.5 14.55 68.23 20.89a6.002 6.002 0 0 0 7.23-3.88l6.57-19.42c.56-1.66.37-3.47-.52-4.98a5.976 5.976 0 0 0-4.12-2.85zm-82.5-158.37c19.29 0 30.83 11.06 37.11 20.34 8.17 12.08 12.86 29.05 12.86 46.56 0 34.09-15.78 68.5-51.02 68.5-12.21 0-22.77-4.4-31.38-13.07-12.13-12.21-19-31.62-18.85-53.33-.16-23.23 6.77-43.62 19.01-55.94 8.59-8.67 19.45-13.06 32.27-13.06zm208.37 131.94h-69.68v-153.9c0-3.31-2.69-6-6-6h-22.86c-3.31 0-6 2.69-6 6v179.32c0 3.31 2.69 6 6 6h98.54c3.31 0 6-2.69 6-6v-19.42c0-3.32-2.68-6-6-6z" fill="#2C5CCB"/></svg>