<svg width="70" height="70" viewBox="0 0 70 70" fill="none" xmlns="http://www.w3.org/2000/svg">
<path d="M14.7726 61.409C13.3983 61.409 12.0803 60.8631 11.1085 59.8913C10.1368 58.9195 9.59082 57.6015 9.59082 56.2272V14.7726C9.59082 13.3983 10.1368 12.0803 11.1085 11.1085C12.0803 10.1368 13.3983 9.59082 14.7726 9.59082H40.6817V14.7726H17.3635C16.6764 14.7726 16.0174 15.0456 15.5315 15.5315C15.0456 16.0174 14.7726 16.6764 14.7726 17.3635V53.6363C14.7726 54.3234 15.0456 54.9824 15.5315 55.4683C16.0174 55.9542 16.6764 56.2272 17.3635 56.2272H53.6363C54.3234 56.2272 54.9824 55.9542 55.4683 55.4683C55.9542 54.9824 56.2272 54.3234 56.2272 53.6363V30.3181H61.409V56.2272C61.409 57.6015 60.8631 58.9195 59.8913 59.8913C58.9195 60.8631 57.6015 61.409 56.2272 61.409H14.7726Z" fill="#0F0F0F"/>
<path d="M32 35.65L57.65 10L61.3135 13.6635L35.6635 39.3135L32 35.65Z" fill="#946FFF"/>
</svg>
