<svg class="icon" viewBox="0 0 1024 1024" xmlns="http://www.w3.org/2000/svg" width="200" height="200"><path d="M513.2 747.5c-4.2 0-8.5-.9-12.4-2.7l-342-155.4c-21.1-7.9-41.5-17.9-60.6-29.9-14-8.8-18.3-27.3-9.5-41.3 8.8-14 27.3-18.3 41.3-9.5 15.9 10 32.9 18.3 50.6 24.8.7.3 1.4.5 2 .8l330.6 150.2L846 533.8c10-4.7 20-9.5 29.8-14.5.1-.1.2-.1.4-.2l21.3-10.4c14.9-7.3 32.9-1.1 40.1 13.8 7.3 14.9 1.1 32.9-13.8 40.1L902.6 573c-10.3 5.2-20.8 10.3-31.3 15.2-.1.1-.2.1-.3.2L525.6 744.9c-3.9 1.7-8.1 2.6-12.4 2.6z" fill="#2c2c2c"/><path d="M513.2 924.7c-4.2 0-8.5-.9-12.4-2.7L157.9 766.6c-20.6-8-40.5-17.8-59.4-29.3-14.2-8.6-18.7-27.1-10.1-41.2s27.1-18.7 41.2-10.1c16 9.7 33.1 18.1 50.6 24.9.5.2 1.1.4 1.6.7l331.3 150.2 332.7-151.3c10.2-4.8 20-9.6 29.9-14.6.1 0 .2-.1.3-.1l21.4-10.4c14.9-7.2 32.9-1 40.1 13.9 7.2 14.9 1 32.9-13.9 40.1l-21.2 10.3c-10.3 5.2-20.5 10.1-31.1 15.2-.1.1-.3.1-.4.2l-345.3 157c-3.9 1.7-8.1 2.6-12.4 2.6zm.4-773.2c6.5 0 12.9 1.9 18.3 5.5l2.7 1.8 2.9 1.5L860 327.8c3 2.1 4.7 5.7 4.5 9.4l-.2 2.5v2.5c0 2.2-1.1 4.3-2.9 5.5L537.6 491l-1.2.6-1.2.6c-7.2 3.6-14.9 5.7-22.9 6.4-7-.7-13.9-2.7-20.2-6l-1.8-.9-1.8-.8-322.9-142.8c-2.2-1.5-3.6-3.9-3.7-6.6v-1l-.1-1c-.2-4.3 1.5-8.4 4.7-11.2l324.1-168.5 2.5-1.3 2.4-1.6c5.5-3.6 11.7-5.4 18.1-5.4m0-60c-17.6 0-35.2 5-50.6 15L134.9 277c-21.9 14.5-34.5 39.5-33 65.8.6 25 14.8 47.7 37.1 59.1l325.1 143.8c15 7.9 31.5 12.3 48.4 13v-.1c17.1-.8 33.9-5.1 49.3-12.8L888 401.7c22.5-11.5 36.7-34.8 36.4-60.1 1.9-26.8-11.5-52.4-34.8-66L565.2 107.1c-15.6-10.4-33.6-15.6-51.6-15.6z" fill="#2c2c2c"/></svg>