<svg xmlns="http://www.w3.org/2000/svg" viewBox="0 0 452.549 452.549"><path d="M33.394 236.459a7.5 7.5 0 0 0 7.5-7.5v-8.261c0-16.387 13.332-29.719 29.719-29.719 13.807 0 26.007 9.776 29.01 23.246a7.498 7.498 0 0 0 8.952 5.688 7.499 7.499 0 0 0 5.688-8.952c-4.519-20.27-22.876-34.982-43.65-34.982-24.658 0-44.719 20.061-44.719 44.719v8.261a7.5 7.5 0 0 0 7.5 7.5zM115.331 288.666v-45.322c0-4.142-3.357-7.5-7.5-7.5s-7.5 3.358-7.5 7.5v45.322c0 16.387-13.331 29.719-29.718 29.719-16.388 0-29.72-13.332-29.72-29.719v-35.971c0-4.142-3.357-7.5-7.5-7.5s-7.5 3.358-7.5 7.5v35.971c0 24.658 20.062 44.719 44.72 44.719 24.658 0 44.718-20.061 44.718-44.719z"/><path d="M81.938 272.422a7.5 7.5 0 0 0 7.5-7.5v-44.224c0-10.38-8.445-18.825-18.825-18.825s-18.825 8.445-18.825 18.825v67.968c0 10.38 8.445 18.825 18.826 18.825 10.38 0 18.824-8.445 18.824-18.825 0-4.142-3.357-7.5-7.5-7.5s-7.5 3.358-7.5 7.5a3.83 3.83 0 0 1-3.824 3.825 3.83 3.83 0 0 1-3.826-3.825v-67.968c0-2.109 1.716-3.825 3.825-3.825s3.825 1.716 3.825 3.825v44.224a7.5 7.5 0 0 0 7.5 7.5z"/><path d="M381.943 150.089H253.015l-20.917-52.114a7.502 7.502 0 0 0-9.194-4.366l-43.358 13.533a7.5 7.5 0 0 0-5.079 8.821l7.752 34.126-111.606-.004C31.677 150.085 0 181.762 0 220.698v67.968c0 38.904 31.625 70.559 70.517 70.61l311.426.006c38.932 0 70.605-31.678 70.605-70.616v-67.971c.001-38.932-31.673-70.606-70.605-70.606zM15 288.666v-67.968c0-30.665 24.947-55.613 55.612-55.613s55.613 24.948 55.613 55.613v67.968c0 30.665-24.948 55.613-55.613 55.613S15 319.331 15 288.666zm422.549 0c0 30.667-24.944 55.616-55.605 55.616h-267.9c16.528-12.936 27.182-33.049 27.182-55.616v-67.968c0-22.563-10.65-42.673-27.173-55.609h71.573l3.043 13.396a7.503 7.503 0 0 0 8.975 5.652 7.5 7.5 0 0 0 5.652-8.975l-12.668-55.765 30.131-9.404 27.653 68.896a7.5 7.5 0 0 0 13.92-5.587l-3.296-8.213h122.908c30.661 0 55.605 24.944 55.605 55.605v67.972z"/><path d="M385.177 320.817h-14.564c-4.143 0-7.5 3.358-7.5 7.5s3.357 7.5 7.5 7.5h14.564a7.5 7.5 0 0 0 0-15zM333.392 320.817h-98.714c-4.143 0-7.5 3.358-7.5 7.5s3.357 7.5 7.5 7.5h98.714a7.5 7.5 0 0 0 0-15zM195.839 320.817h-45.313c-4.143 0-7.5 3.358-7.5 7.5s3.357 7.5 7.5 7.5h45.313a7.5 7.5 0 0 0 0-15zM406.214 284.001h-38.838c-4.143 0-7.5 3.358-7.5 7.5s3.357 7.5 7.5 7.5h38.838a7.5 7.5 0 0 0 0-15zM172.155 291.501a7.5 7.5 0 0 0 7.5 7.5h129.463c4.143 0 7.5-3.358 7.5-7.5s-3.357-7.5-7.5-7.5H179.655a7.5 7.5 0 0 0-7.5 7.5zM406.214 210.369h-27.511c-4.143 0-7.5 3.358-7.5 7.5s3.357 7.5 7.5 7.5h27.511a7.5 7.5 0 0 0 0-15zM171.564 225.369H335.01c4.143 0 7.5-3.358 7.5-7.5s-3.357-7.5-7.5-7.5H171.564a7.5 7.5 0 0 0 0 15zM406.214 247.185H239.532c-4.143 0-7.5 3.358-7.5 7.5s3.357 7.5 7.5 7.5h166.682a7.5 7.5 0 0 0 0-15zM171.564 262.185h33.983c4.143 0 7.5-3.358 7.5-7.5s-3.357-7.5-7.5-7.5h-33.983a7.5 7.5 0 0 0 0 15zM283.226 188.554h101.951c4.143 0 7.5-3.358 7.5-7.5s-3.357-7.5-7.5-7.5H283.226c-4.143 0-7.5 3.358-7.5 7.5s3.357 7.5 7.5 7.5z"/></svg>