<svg class="icon" viewBox="0 0 1024 1024" xmlns="http://www.w3.org/2000/svg" width="200" height="200"><path d="M197.052 122.507H826.95a189.1 189.1 0 0 1 128.043 49.808c32.73 30.734 53.338 72.505 53.338 118.824v441.973c0 46.3-20.613 88.348-53.342 119.035l-1.922 1.794a189.144 189.144 0 0 1-126.12 47.554H197.052c-49.543 0-95.015-18.864-127.513-49.339l-.524-.256-.55-.743c-32.48-30.201-52.766-72.25-52.766-118.038V291.14c0-45.835 20.836-88.092 53.312-118.316l.524-.513.574-1a187.96 187.96 0 0 1 126.944-48.808zm587.15 396.902c12.967 12.104 21.087 28.946 21.087 46.579 0 18.12-8.12 34.217-21.086 46.322-27.083 26.159-72.579 26.159-99.911 0h-.276a62.445 62.445 0 0 1-16.764-24.927h-66.058a24.605 24.605 0 0 1-16.515-6.806l-47.92-46.81-76.875 198.067c-2.973 7.295-10.543 13.358-19.487 14.844-12.442 1.025-24.085-7.55-24.885-18.608l-37.65-303.049-40.85 167.892c-.549 4.785-3.522 9.315-7.048 12.591-10.02 7.806-24.36 6.806-32.48-2.02l-46.021-48.827-11.367 20.14a23.121 23.121 0 0 1-20.562 12.591h-56.335c-12.717 0-22.71-9.338-22.71-20.907 0-12.08 9.995-21.884 22.71-21.884h42.25l20.01-37.006c5.971-10.57 20.037-14.59 30.885-9.036a34.703 34.703 0 0 1 7.57 5.017l38.447 40.77 61.16-249.686c2.45-11.848 14.617-19.142 26.81-16.355 10.017 1.766 17.063 9.804 18.137 18.12l40.874 336.758 57.113-145.71c4.323-11.36 17.315-16.867 28.963-13.103 3.522 1.51 6.495 2.764 8.944 5.018l66.308 65.207h56.589a66.749 66.749 0 0 1 16.764-25.182h.275c27.333-25.414 72.828-25.414 99.911 0zm-31.979 30.224a27.782 27.782 0 0 0-36.002 0c-4.048 4.275-7.02 9.804-7.02 15.844v1.254a20.983 20.983 0 0 0 7.02 15.356 26.683 26.683 0 0 0 36.002 0 21.714 21.714 0 0 0 7.049-16.1 24.605 24.605 0 0 0-7.049-16.354zm74.727-355.922H197.052a110.225 110.225 0 0 0-73.903 28.457v.257c-19.213 17.864-31.13 42-31.13 68.714v441.973c0 26.669 11.919 51.107 31.13 68.972a109.383 109.383 0 0 0 73.903 28.668H826.95c28.132 0 54.14-10.547 72.554-27.413l1.6-1.255c18.966-17.865 30.605-42.303 30.605-68.972V291.139c0-26.716-11.643-50.852-30.606-68.717a108.241 108.241 0 0 0-74.153-28.714z" fill="#3B3F51"/></svg>