<svg xmlns="http://www.w3.org/2000/svg" width="64" height="64" enable-background="new 0 0 64 64" viewBox="0 0 64 64"><path fill="#EF6183" d="M48.806,15.277H19.274c-0.504,0-0.915,0.412-0.915,0.914v2.881c0,0.512,0.411,0.914,0.915,0.914h0.813
		v10.715c0,1.326,0.558,2.598,1.518,3.475l6.958,6.373c0.164,0.154,0.384,0.246,0.612,0.246h9.728c0.229,0,0.448-0.092,0.613-0.246
		l6.948-6.373c0.979-0.887,1.536-2.148,1.536-3.475V19.986h0.805c0.503,0,0.914-0.402,0.914-0.914v-2.881
		C49.72,15.689,49.309,15.277,48.806,15.277z"/><path fill="#D3D3D3" d="M29.268,45.313c0,0.502,0.411,0.914,0.914,0.914h2.935c-0.165,4.727-1.362,10.762-4.361,13.486
		c-3.163,2.869-7.524,2.568-11.739,2.285c-0.604-0.047-1.188-0.082-1.773-0.119c-0.503-0.055-0.933,0.365-0.96,0.869
		c-0.027,0.502,0.356,0.932,0.859,0.959c0.576,0.027,1.161,0.074,1.746,0.109C18.177,63.908,19.512,64,20.855,64
		c3.228,0,6.491-0.529,9.134-2.936c3.429-3.117,4.791-9.545,4.955-14.838h2.844c0.512,0,0.914-0.412,0.914-0.914v-2.688h-9.435
		V45.313z"/><path fill="#E04767" d="M28.719 2.697C28.719 1.207 27.512 0 26.03 0c-1.49 0-2.697 1.207-2.697 2.697v10.752h5.386V2.697zM44.746 2.697c0-1.49-1.207-2.697-2.697-2.697-1.481 0-2.688 1.207-2.688 2.697v10.752h5.386V2.697z"/></svg>