<svg xmlns="http://www.w3.org/2000/svg" width="40" height="40" viewBox="0 0 40 40" fill="none">
<path d="M20.29 35.5655C20.366 35.6094 20.4521 35.6325 20.5399 35.6325C20.6276 35.6325 20.7138 35.6095 20.7898 35.5656C20.8658 35.5218 20.9289 35.4588 20.9728 35.3828C21.0167 35.3069 21.0399 35.2207 21.04 35.133V22.8095C21.0401 22.7216 21.017 22.6353 20.9731 22.5592C20.9292 22.4831 20.8661 22.4199 20.79 22.376L15.4625 19.3125C15.386 19.2686 15.3225 19.2052 15.2784 19.1288C15.2343 19.0524 15.2113 18.9657 15.2115 18.8775L15.2465 9.8745C15.2469 9.78635 15.2239 9.69967 15.18 9.62324C15.1361 9.54682 15.0728 9.48336 14.9964 9.43929C14.9201 9.39523 14.8335 9.37214 14.7453 9.37235C14.6572 9.37256 14.5706 9.39607 14.4945 9.4405L6.748 13.96C6.67258 14.004 6.61001 14.067 6.5665 14.1427C6.52299 14.2184 6.50006 14.3042 6.5 14.3915V27.296C6.50009 27.3837 6.52324 27.4698 6.56712 27.5457C6.61099 27.6216 6.67407 27.6847 6.75 27.7285L20.29 35.566V35.5655Z" fill="#7C5ED5"/>
<path d="M19.251 4.4345C19.175 4.39064 19.0888 4.36753 19.0011 4.36751C18.9134 4.36749 18.8272 4.39055 18.7512 4.43437C18.6752 4.47819 18.6121 4.54124 18.5682 4.61718C18.5242 4.69312 18.5011 4.77927 18.501 4.867V17.1905C18.5009 17.2783 18.524 17.3647 18.5678 17.4408C18.6117 17.5169 18.6749 17.5801 18.751 17.624L24.0785 20.6875C24.155 20.7314 24.2185 20.7948 24.2626 20.8712C24.3066 20.9476 24.3297 21.0343 24.3295 21.1225L24.2945 30.1255C24.2941 30.2136 24.317 30.3003 24.3609 30.3768C24.4049 30.4532 24.4682 30.5166 24.5445 30.5607C24.6209 30.6048 24.7075 30.6279 24.7957 30.6276C24.8838 30.6274 24.9703 30.6039 25.0465 30.5595L32.793 26.0405C32.8685 25.9965 32.9311 25.9334 32.9746 25.8576C33.0181 25.7818 33.041 25.6959 33.041 25.6085V12.705C33.0409 12.6174 33.0179 12.5313 32.9741 12.4554C32.9303 12.3795 32.8673 12.3164 32.7915 12.2725L19.251 4.4345Z" fill="#7C5ED5"/>
</svg>